<?xml version="1.0" encoding="iso-8859-1"?>
<!-- Uploaded to: SVG Repo, www.svgrepo.com, Generator: SVG Repo Mixer Tools -->
<svg version="1.1" id="Layer_1" xmlns="http://www.w3.org/2000/svg" xmlns:xlink="http://www.w3.org/1999/xlink" 
	 viewBox="0 0 512 512" xml:space="preserve">
<g transform="translate(1 1)">
	<g>
		<path style="fill:#FFDD09;" d="M101.4,476.867h315.733c-28.16,0-51.2-23.04-51.2-51.2V191c0-87.04-70.827-157.867-157.867-157.867
			l0,0C121.027,33.133,50.2,103.96,50.2,191v234.667C50.2,453.827,73.24,476.867,101.4,476.867"/>
		<path style="fill:#FFDD09;" d="M50.2,425.667v-76.8H7.533v99.84c0,15.36,12.8,28.16,28.16,28.16h57.173v-0.853
			C68.973,471.747,50.2,451.267,50.2,425.667"/>
	</g>
	<path style="fill:#FFFFFF;" d="M33.133,448.707v-99.84h-25.6v99.84c0,15.36,12.8,28.16,28.16,28.16h25.6
		C45.933,476.867,33.133,464.067,33.133,448.707"/>
	<polygon style="fill:#FCC309;" points="365.933,323.267 468.333,323.267 468.333,237.933 365.933,237.933 	"/>
	<g>
		<path style="fill:#FFDD09;" d="M417.133,191v46.933h51.2V191c0-87.04-70.827-157.867-157.867-157.867
			c-8.533,0-17.067,0.853-25.6,2.56C359.96,47.64,417.133,112.493,417.133,191"/>
		<polygon style="fill:#FFDD09;" points="417.133,365.933 468.333,365.933 468.333,323.267 417.133,323.267 		"/>
	</g>
	<g>
		<path style="fill:#FCC309;" d="M391.533,191v46.933h51.2V191c0-87.04-70.827-157.867-157.867-157.867
			c-8.533,0-17.067,0.853-25.6,2.56C334.36,47.64,391.533,112.493,391.533,191"/>
		<polygon style="fill:#FCC309;" points="391.533,365.933 442.733,365.933 442.733,323.267 391.533,323.267 		"/>
	</g>
	<g>
		<path style="fill:#FD9808;" d="M310.467,33.133c-4.267,0-8.533,0-12.8,0.853c81.067,6.827,145.067,74.24,145.067,157.013v46.933
			h25.6V191C468.333,103.96,397.507,33.133,310.467,33.133"/>
		<polygon style="fill:#FD9808;" points="442.733,365.933 468.333,365.933 468.333,237.933 442.733,237.933 		"/>
	</g>
	<g>
		<path style="fill:#FCC309;" d="M365.933,237.933h51.2V191c0-87.04-70.827-157.867-157.867-157.867
			c-8.533,0-17.067,0.853-25.6,2.56C308.76,47.64,365.933,112.493,365.933,191V237.933z"/>
		<path style="fill:#FCC309;" d="M417.133,365.933v-42.667h-51.2v102.4c0,28.16,23.04,51.2,51.2,51.2v-51.2V365.933z"/>
		<path style="fill:#FCC309;" d="M443.587,476.867h-26.453V365.933h85.333v52.053C502.467,450.413,476.013,476.867,443.587,476.867"
			/>
	</g>
	<path style="fill:#FD9808;" d="M476.867,365.933v52.053c0,32.427-26.453,58.88-58.88,58.88h25.6c32.427,0,58.88-26.453,58.88-58.88
		v-52.053H476.867z"/>
	<path style="fill:#1CD759;" d="M287.427,425.667h-158.72c-15.36,0-27.307-12.8-27.307-27.307v-60.587
		c0-7.68,6.827-14.507,14.507-14.507h184.32c7.68,0,14.507,6.827,14.507,14.507v60.587
		C314.733,412.867,301.933,425.667,287.427,425.667"/>
	<path style="fill:#15A143;" d="M300.227,323.267h-25.6c7.68,0,14.507,6.827,14.507,14.507v60.587
		c0,15.36-12.8,27.307-27.307,27.307h25.6c15.36,0,27.307-12.8,27.307-27.307v-60.587
		C314.733,330.093,307.907,323.267,300.227,323.267"/>
	<polygon style="fill:#1CD759;" points="263.533,169.667 203.8,229.4 144.067,169.667 203.8,109.933 	"/>
	<polygon style="fill:#15A143;" points="203.8,109.933 191,122.733 237.933,169.667 191,216.6 203.8,229.4 263.533,169.667 	"/>
	<path d="M417.133,485.4H101.4c-33.28,0-59.733-26.453-59.733-59.733V191c0-92.16,74.24-166.4,166.4-166.4s166.4,74.24,166.4,166.4
		v234.667c0,23.893,18.773,42.667,42.667,42.667c5.12,0,8.533,3.413,8.533,8.533C425.667,481.987,422.253,485.4,417.133,485.4z
		 M208.067,41.667c-81.92,0-149.333,67.413-149.333,149.333v234.667c0,23.893,18.773,42.667,42.667,42.667h273.92
		c-11.093-11.093-17.92-25.6-17.92-42.667V191C357.4,109.08,289.987,41.667,208.067,41.667z"/>
	<path d="M468.333,331.8h-102.4c-5.12,0-8.533-3.413-8.533-8.533v-85.333c0-5.12,3.413-8.533,8.533-8.533h102.4
		c5.12,0,8.533,3.413,8.533,8.533v85.333C476.867,328.387,473.453,331.8,468.333,331.8z M374.467,314.733H459.8v-68.267h-85.333
		V314.733z"/>
	<path d="M468.333,246.467h-51.2c-5.12,0-8.533-3.413-8.533-8.533V191c0-72.533-53.76-135.68-125.44-146.773
		c-4.267-0.853-6.827-4.267-6.827-8.533s3.413-7.68,6.827-8.533c10.24-1.707,18.773-2.56,27.307-2.56
		c92.16,0,166.4,74.24,166.4,166.4v46.933C476.867,243.053,473.453,246.467,468.333,246.467z M425.667,229.4H459.8V191
		c0-73.387-53.76-134.827-123.733-146.773c53.76,28.16,89.6,84.48,89.6,146.773V229.4z"/>
	<path d="M468.333,374.467h-51.2c-5.12,0-8.533-3.413-8.533-8.533v-42.667c0-5.12,3.413-8.533,8.533-8.533h51.2
		c5.12,0,8.533,3.413,8.533,8.533v42.667C476.867,371.053,473.453,374.467,468.333,374.467z M425.667,357.4H459.8v-25.6h-34.133
		V357.4z"/>
	<path d="M417.133,246.467h-51.2c-5.12,0-8.533-3.413-8.533-8.533V191c0-72.533-53.76-135.68-125.44-146.773
		c-4.267-0.853-6.827-4.267-6.827-8.533s3.413-7.68,6.827-8.533c10.24-1.707,18.773-2.56,27.307-2.56
		c92.16,0,166.4,74.24,166.4,166.4v46.933C425.667,243.053,422.253,246.467,417.133,246.467z M374.467,229.4H408.6V191
		c0-73.387-53.76-134.827-123.733-146.773c53.76,28.16,89.6,84.48,89.6,146.773V229.4z"/>
	<path d="M417.133,485.4c-33.28,0-59.733-26.453-59.733-59.733v-102.4c0-5.12,3.413-8.533,8.533-8.533h51.2
		c5.12,0,8.533,3.413,8.533,8.533v153.6C425.667,481.987,422.253,485.4,417.133,485.4z M374.467,331.8v93.867
		c0,20.48,14.507,37.547,34.133,41.813V331.8H374.467z"/>
	<path d="M92.867,485.4H35.693C15.213,485.4-1,469.187-1,448.707v-99.84c0-5.12,3.413-8.533,8.533-8.533H50.2
		c5.12,0,8.533,3.413,8.533,8.533v76.8c0,20.48,15.36,38.4,35.84,41.813c4.267,0.853,6.827,4.267,6.827,8.533
		C101.4,481.133,97.987,485.4,92.867,485.4z M16.067,357.4v91.307c0,11.093,8.533,19.627,19.627,19.627h23.893
		c-11.093-11.093-17.92-26.453-17.92-42.667V357.4H16.067z"/>
	<path d="M443.587,485.4h-26.453c-5.12,0-8.533-3.413-8.533-8.533V365.933c0-5.12,3.413-8.533,8.533-8.533h85.333
		c5.12,0,8.533,3.413,8.533,8.533v52.053C511,455.533,481.133,485.4,443.587,485.4z M425.667,468.333h17.92
		c27.307,0,50.347-22.187,50.347-50.347v-43.52h-68.267V468.333z"/>
	<path d="M287.427,434.2h-158.72c-19.627,0-35.84-16.213-35.84-35.84v-60.587c0-12.8,10.24-23.04,23.04-23.04h184.32
		c12.8,0,23.04,10.24,23.04,23.04v60.587C323.267,417.987,307.053,434.2,287.427,434.2z M115.907,331.8
		c-3.413,0-5.973,2.56-5.973,5.973v60.587c0,10.24,8.533,18.773,18.773,18.773h157.867c10.24,0,18.773-8.533,18.773-18.773v-60.587
		c0-3.413-2.56-5.973-5.973-5.973H115.907z"/>
	<rect x="101.4" y="357.4" width="213.333" height="17.067"/>
	<path d="M161.133,400.067c-5.12,0-8.533-3.413-8.533-8.533v-25.6c0-5.12,3.413-8.533,8.533-8.533c5.12,0,8.533,3.413,8.533,8.533
		v25.6C169.667,396.653,166.253,400.067,161.133,400.067z"/>
	<path d="M203.8,237.933c-2.56,0-4.267-0.853-5.973-2.56l-59.733-59.733c-3.413-3.413-3.413-8.533,0-11.947l59.733-59.733
		c3.413-3.413,8.533-3.413,11.947,0l59.733,59.733c3.413,3.413,3.413,8.533,0,11.947l-59.733,59.733
		C208.067,237.08,206.36,237.933,203.8,237.933z M156.013,169.667l47.787,47.787l47.787-47.787L203.8,121.88L156.013,169.667z"/>
	<path d="M220.867,178.2h-34.133c-5.12,0-8.533-3.413-8.533-8.533c0-5.12,3.413-8.533,8.533-8.533h34.133
		c5.12,0,8.533,3.413,8.533,8.533C229.4,174.787,225.987,178.2,220.867,178.2z"/>
</g>
</svg>