<?xml version="1.0" encoding="iso-8859-1"?>
<!-- Uploaded to: SVG Repo, www.svgrepo.com, Generator: SVG Repo Mixer Tools -->
<svg height="800px" width="800px" version="1.1" id="Layer_1" xmlns="http://www.w3.org/2000/svg" xmlns:xlink="http://www.w3.org/1999/xlink" 
	 viewBox="0 0 512 512" xml:space="preserve">
<path style="fill:#664B33;" d="M473.576,356.718l-0.034-1.038c-2.615-39.214,9.134-106.133,9.253-106.804l-30.734-5.451
	c-0.511,2.88-12.433,70.754-9.698,113.801v64.564h-4.728v31.213h41.357V421.79h-5.417v-65.072H473.576z"/>
<path style="fill:#FF3D63;" d="M512,165.804c0,26.989-24.534,79.802-27.332,85.732l-3.215,6.815l-7.325,1.727
	c-0.125,0.031-13.765,3.277-56.444,15.471c-9.999,2.851-27.364,14.098-53.375,51.45c-18.78,26.968-35.656,58.41-46.809,79.219
	l-3.111,5.795c-11.258,20.902-30.142,34.47-54.602,39.235c-2.018,0.395-4.006,0.707-5.92,0.957
	c-4.952,0.666-9.52,0.884-13.442,0.884c-6.315,0-10.966-0.583-12.891-0.874L12.142,434.664l-3.652-2.799
	C0.884,426.029,0,414.708,0,406.697c0-18.634,15.94-30.131,17.76-31.39l0.812-0.551l112.742-58.14l7.054,9.333
	c1.665,1.457,13.016,10.467,43.137,16.366c15.96,3.132,38.964,0.645,72.363-38.569c15.471-18.166,33.18-44.208,53.447-81.237
	C367.441,112.68,443.102,68.013,446.286,66.172l12.537-7.262l8.167,11.955c0.447,0.655,11.049,16.2,21.808,35.032
	C509.597,142.28,512,157.512,512,165.804z"/>
<path style="fill:#FF0335;" d="M512,165.804c0,26.989-24.534,79.802-27.332,85.732l-3.215,6.815l-7.325,1.727
	c-0.125,0.031-13.765,3.277-56.444,15.471c-9.999,2.851-27.364,14.098-53.375,51.45c-18.78,26.968-35.656,58.41-46.809,79.219
	l-3.111,5.795c-11.258,20.902-30.142,34.47-54.602,39.235c-2.018,0.395-4.006,0.707-5.92,0.957v-148.46
	c15.471-18.166,33.18-44.208,53.447-81.237C367.441,112.68,443.102,68.013,446.286,66.172l12.537-7.262l8.167,11.955
	c0.447,0.655,11.049,16.2,21.808,35.032C509.597,142.28,512,157.512,512,165.804z"/>
</svg>