<?xml version="1.0" encoding="iso-8859-1"?>
<!-- Uploaded to: SVG Repo, www.svgrepo.com, Generator: SVG Repo Mixer Tools -->
<svg version="1.1" id="Layer_1" xmlns="http://www.w3.org/2000/svg" xmlns:xlink="http://www.w3.org/1999/xlink" 
	 viewBox="0 0 511.996 511.996" xml:space="preserve">
<path style="fill:#37BC9B;" d="M282.67,0h-85.344c-5.891,0-10.656,4.766-10.656,10.656s4.766,10.672,10.656,10.672h85.344
	c5.891,0,10.656-4.781,10.656-10.672S288.56,0,282.67,0z"/>
<path style="fill:#CCD1D9;" d="M485.325,426.653c0,5.891-4.766,10.672-10.656,10.672h-112c-5.891,0-10.672-4.781-10.672-10.672
	v-21.328c0-5.891,4.781-10.671,10.672-10.671h112c5.891,0,10.656,4.78,10.656,10.671V426.653z"/>
<path style="fill:#434A54;" d="M474.669,10.656H306.857v63.999h135.812v149.343c0,17.672,14.328,32,32,32s32-14.328,32-32V42.655
	C506.669,24.984,492.341,10.656,474.669,10.656z"/>
<polygon style="fill:#37BC9B;" points="5.327,42.655 112.186,295.326 129.858,21.328 "/>
<path style="fill:#48CFAD;" d="M431.497,447.997L411.169,21.312c-0.281-5.859-5.312-10.656-11.172-10.656H79.999
	c-5.859,0-10.891,4.797-11.172,10.656L48.499,447.997c-0.266,5.859-0.5,15.453-0.5,21.328v31.999
	c0,5.859,4.797,10.672,10.672,10.672h362.654c5.875,0,10.672-4.812,10.672-10.672v-31.999
	C431.997,463.45,431.763,453.856,431.497,447.997z"/>
<polygon style="fill:#37BC9B;" points="67.296,53.327 412.7,53.327 411.685,31.999 68.311,31.999 "/>
<path style="fill:#656D78;" d="M58.671,511.996h362.654c5.875,0,10.672-4.812,10.672-10.672v-31.999H47.999v31.999
	C47.999,507.184,52.796,511.996,58.671,511.996z"/>
<g>
	<path style="fill:#434A54;" d="M111.999,479.997c5.891,0,10.672-4.781,10.672-10.672h-21.344
		C101.327,475.216,106.108,479.997,111.999,479.997z"/>
	<path style="fill:#434A54;" d="M175.998,479.997c5.891,0,10.672-4.781,10.672-10.672h-21.343
		C165.327,475.216,170.108,479.997,175.998,479.997z"/>
	<path style="fill:#434A54;" d="M239.998,479.997c5.891,0,10.672-4.781,10.672-10.672h-21.344
		C229.326,475.216,234.107,479.997,239.998,479.997z"/>
	<path style="fill:#434A54;" d="M303.998,479.997c5.891,0,10.672-4.781,10.672-10.672h-21.344
		C293.326,475.216,298.107,479.997,303.998,479.997z"/>
	<path style="fill:#434A54;" d="M367.997,479.997c5.891,0,10.672-4.781,10.672-10.672h-21.344
		C357.325,475.216,362.106,479.997,367.997,479.997z"/>
</g>
<path style="fill:#656D78;" d="M239.998,373.326c-17.641,0-32-14.359-32-32V181.327c0-17.641,14.359-32,32-32
	c17.642,0,32,14.359,32,32v159.999C271.998,358.967,257.64,373.326,239.998,373.326z"/>
<rect x="209.968" y="234.658" style="fill:#5D9CEC;" width="59.55" height="127.41"/>
<g>
	<path style="fill:#434A54;" d="M229.326,202.654c0,5.891-4.766,10.672-10.656,10.672s-10.672-4.781-10.672-10.672
		c0-5.89,4.781-10.655,10.672-10.655S229.326,196.765,229.326,202.654z"/>
	<path style="fill:#434A54;" d="M229.326,287.998c0,5.875-4.766,10.656-10.656,10.656s-10.672-4.781-10.672-10.656
		c0-5.906,4.781-10.672,10.672-10.672S229.326,282.092,229.326,287.998z"/>
	<path style="fill:#434A54;" d="M229.326,330.654c0,5.891-4.766,10.672-10.656,10.672s-10.672-4.781-10.672-10.672
		s4.781-10.656,10.672-10.656S229.326,324.764,229.326,330.654z"/>
	<path style="fill:#434A54;" d="M229.326,245.326c0,5.891-4.766,10.672-10.656,10.672s-10.672-4.781-10.672-10.672
		s4.781-10.672,10.672-10.672S229.326,239.436,229.326,245.326z"/>
</g>
<path style="fill:#37BC9B;" d="M239.998,138.655c-23.562,0-42.672,19.109-42.672,42.672v159.999
	c0,23.563,19.11,42.672,42.672,42.672s42.672-19.109,42.672-42.672V181.327C282.67,157.765,263.56,138.655,239.998,138.655z
	 M261.327,341.326c0,11.766-9.563,21.328-21.329,21.328s-21.328-9.562-21.328-21.328V181.327c0-11.766,9.562-21.328,21.328-21.328
	s21.329,9.562,21.329,21.328V341.326z"/>
</svg>