<?xml version="1.0" encoding="iso-8859-1"?>
<!-- Uploaded to: SVG Repo, www.svgrepo.com, Generator: SVG Repo Mixer Tools -->
<svg height="800px" width="800px" version="1.1" id="Layer_1" xmlns="http://www.w3.org/2000/svg" xmlns:xlink="http://www.w3.org/1999/xlink" 
	 viewBox="0 0 509 509" xml:space="preserve">
<circle style="fill:#F1F3F7;" cx="254.5" cy="254.5" r="254.5"/>
<g>
	<path style="fill:#414753;" d="M169.9,161.6c-1.1,0-2.3-0.2-3.3-0.7c-3.9-1.8-5.6-6.5-3.7-10.4l18.2-38.5c1.3-2.7,4-4.5,7.1-4.5
		h49.5c4.3,0,7.8,3.5,7.8,7.8s-3.5,7.8-7.8,7.8h-44.6l-16.1,34C175.7,159.9,172.9,161.6,169.9,161.6z"/>
	<path style="fill:#414753;" d="M113.7,148.8c-0.1,0-0.2,0-0.4,0v59.4c0.1,0,0.2,0,0.4,0c16.4,0,29.7-13.3,29.7-29.7
		S130.1,148.8,113.7,148.8z"/>
	<circle style="fill:#414753;" cx="91.2" cy="342.8" r="58.8"/>
</g>
<circle style="fill:#BDBDBE;" cx="91.2" cy="342.8" r="30.6"/>
<circle style="fill:#414753;" cx="379.1" cy="342.8" r="58.8"/>
<circle style="fill:#BDBDBE;" cx="379.1" cy="342.8" r="30.6"/>
<path style="fill:#6EB1E1;" d="M409.4,224.1h-147c-13.3,0-24.1,10.8-24.1,24.1c0,11.3,7.8,20.9,18.8,23.5
	c17.4,4.1,33.2,15.7,33.2,29.8c0,14.7-8.8,29.8-25,29.8s-108.1,15.3-98.2-61.2C177,193.6,195,158.5,195,158.5l-13.4-20l-38.7,18.9
	l-29.7,76.5c0,0-69.7-1.9-83.7,60.2c0,0,110.7-4.4,124.2,65.9h325.9v-44.1C479.6,315.9,463.4,224.1,409.4,224.1z"/>
<path style="fill:#4485C5;" d="M144.8,337.6c4.1,6.5,7.2,13.9,8.9,22.4h325.9v-22.4H144.8z"/>
<g>
	<path style="fill:#414753;" d="M327,224.1h-79.5c-3.3,0-6-2.7-6-6v-28.9c0-3.3,2.7-6,6-6H327c3.3,0,6,2.7,6,6v28.9
		C333.1,221.4,330.3,224.1,327,224.1z"/>
	<path style="fill:#414753;" d="M418.3,224.1h-69.7c-3.3,0-6-2.7-6-6v-28.9c0-3.3,2.7-6,6-6h69.7c3.3,0,6,2.7,6,6v28.9
		C424.3,221.4,421.6,224.1,418.3,224.1z"/>
	<path style="fill:#414753;" d="M458.4,236.6h-24.9c-2.9,0-5.2-2.3-5.2-5.2v-81.7c0-2.9,2.3-5.2,5.2-5.2h24.9c2.9,0,5.2,2.3,5.2,5.2
		v81.7C463.6,234.3,461.2,236.6,458.4,236.6z"/>
</g>
<path style="fill:#6EB1E1;" d="M149.5,346.5c-1-2.8-2.5-5.7-4.7-8.9C146.6,340.4,148.1,343.4,149.5,346.5z"/>
<path style="fill:#89CBF4;" d="M113.1,234c0,0-69.7-1.9-83.7,60.2c0,0,83-3.2,114,41.5C94,263.8,113.1,234,113.1,234z"/>
<path style="fill:#4485C5;" d="M35.9,276.1c-2.7,5.3-4.9,11.3-6.5,18.1c0,0,83-3.2,114,41.5c-11.2-16.3-18.8-30.3-24-42.4
	C89,277.9,55,275.8,35.9,276.1z"/>
<g>
	<path style="fill:#89CBF4;" d="M409.6,276h-79.4c-1.9,0-3.4-1.5-3.4-3.4v-16.1c0-1.9,1.5-3.4,3.4-3.4h79.4c1.9,0,3.4,1.5,3.4,3.4
		v16.2C413,274.5,411.4,276,409.6,276z"/>
	<path style="fill:#89CBF4;" d="M409.6,315h-79.4c-1.9,0-3.4-1.5-3.4-3.4v-16.1c0-1.9,1.5-3.4,3.4-3.4h79.4c1.9,0,3.4,1.5,3.4,3.4
		v16.2C413,313.5,411.4,315,409.6,315z"/>
</g>
</svg>